<svg width="16" height="17" viewBox="0 0 16 17" fill="none" xmlns="http://www.w3.org/2000/svg">
<path d="M0.966 4.66C0.966 4.38 1.008 4.044 1.092 3.652C1.176 3.246 1.337 2.868 1.575 2.518C1.813 2.154 2.142 1.846 2.562 1.594C2.996 1.342 3.549 1.216 4.221 1.216C4.865 1.216 5.39 1.349 5.796 1.615C6.202 1.867 6.51 2.175 6.72 2.539C6.944 2.903 7.091 3.281 7.161 3.673C7.245 4.065 7.287 4.394 7.287 4.66C7.287 4.926 7.245 5.255 7.161 5.647C7.091 6.039 6.944 6.417 6.72 6.781C6.51 7.145 6.202 7.46 5.796 7.726C5.39 7.978 4.865 8.104 4.221 8.104C3.549 8.104 2.996 7.978 2.562 7.726C2.142 7.474 1.813 7.173 1.575 6.823C1.337 6.459 1.176 6.081 1.092 5.689C1.008 5.283 0.966 4.94 0.966 4.66ZM5.775 4.66C5.775 4.422 5.754 4.184 5.712 3.946C5.67 3.694 5.593 3.47 5.481 3.274C5.369 3.064 5.201 2.896 4.977 2.77C4.753 2.63 4.466 2.56 4.116 2.56C3.794 2.56 3.528 2.63 3.318 2.77C3.108 2.896 2.94 3.064 2.814 3.274C2.688 3.47 2.597 3.694 2.541 3.946C2.485 4.184 2.457 4.422 2.457 4.66C2.457 4.898 2.485 5.143 2.541 5.395C2.597 5.633 2.688 5.857 2.814 6.067C2.94 6.263 3.108 6.431 3.318 6.571C3.528 6.697 3.794 6.76 4.116 6.76C4.466 6.76 4.753 6.697 4.977 6.571C5.201 6.431 5.369 6.263 5.481 6.067C5.593 5.857 5.67 5.633 5.712 5.395C5.754 5.143 5.775 4.898 5.775 4.66ZM8.82 12.829C8.82 12.549 8.862 12.213 8.946 11.821C9.03 11.415 9.191 11.037 9.429 10.687C9.667 10.323 9.996 10.015 10.416 9.763C10.85 9.511 11.403 9.385 12.075 9.385C12.719 9.385 13.244 9.518 13.65 9.784C14.056 10.036 14.364 10.344 14.574 10.708C14.798 11.072 14.945 11.45 15.015 11.842C15.099 12.234 15.141 12.563 15.141 12.829C15.141 13.095 15.099 13.424 15.015 13.816C14.945 14.208 14.798 14.586 14.574 14.95C14.364 15.314 14.056 15.629 13.65 15.895C13.244 16.147 12.719 16.273 12.075 16.273C11.403 16.273 10.85 16.147 10.416 15.895C9.996 15.643 9.667 15.342 9.429 14.992C9.191 14.628 9.03 14.25 8.946 13.858C8.862 13.452 8.82 13.109 8.82 12.829ZM13.629 12.829C13.629 12.591 13.608 12.353 13.566 12.115C13.524 11.863 13.447 11.639 13.335 11.443C13.223 11.233 13.055 11.065 12.831 10.939C12.607 10.799 12.32 10.729 11.97 10.729C11.648 10.729 11.382 10.799 11.172 10.939C10.962 11.065 10.794 11.233 10.668 11.443C10.542 11.639 10.451 11.863 10.395 12.115C10.339 12.353 10.311 12.591 10.311 12.829C10.311 13.067 10.339 13.312 10.395 13.564C10.451 13.802 10.542 14.026 10.668 14.236C10.794 14.432 10.962 14.6 11.172 14.74C11.382 14.866 11.648 14.929 11.97 14.929C12.32 14.929 12.607 14.866 12.831 14.74C13.055 14.6 13.223 14.432 13.335 14.236C13.447 14.026 13.524 13.802 13.566 13.564C13.608 13.312 13.629 13.067 13.629 12.829ZM12.642 0.396999L13.986 1.405L3.087 16.945L1.743 15.958L12.642 0.396999Z" fill="#2F3035"/>
</svg>
