<svg width="15" height="18" viewBox="0 0 15 18" fill="none" xmlns="http://www.w3.org/2000/svg">
<path d="M2.12061 8.91791C2.12061 6.13866 2.12061 3.35941 2.12061 0.394878C4.92359 0.394878 7.46145 0.28371 9.99929 0.431937C12.6508 0.580164 14.6583 3.02591 14.5825 5.69399C14.5068 8.28795 12.4614 10.5484 9.8099 10.6596C7.91599 10.7707 6.05994 10.6966 4.09028 10.6966L2.12061 8.91791ZM4.09028 2.09949C4.09028 4.47111 4.09028 6.69451 4.09028 8.99203C4.58269 9.02908 6.05995 8.99203 6.43873 8.99203C7.49932 8.99203 8.97658 9.02908 9.8099 8.91791C11.5902 8.73263 12.878 7.21331 12.8402 5.5087C12.8023 3.72998 11.4387 2.21066 9.58262 2.09949C7.80234 2.02537 5.98419 2.09949 4.09028 2.09949Z" fill="#1C62CD"/>
<path d="M7.68907 11.1043C7.1209 11.1043 6.51484 11.1043 5.90879 11.1043C5.30274 11.1043 4.69669 11.1043 4.09064 11.1043V10.3631C4.69669 10.3631 5.30274 10.3631 5.90879 10.3631C7.23453 10.3631 8.52241 10.4002 9.81026 10.3261C12.2345 10.1779 14.1662 8.17681 14.2041 5.69402C14.2799 3.13711 12.3481 0.950759 9.96176 0.802532C8.21937 0.691362 6.47697 0.728416 4.65881 0.765473C3.93913 0.765473 3.21944 0.802532 2.49975 0.802532V8.955H1.74219V0.0613989H2.12097C2.99217 0.0613989 3.82549 0.0613966 4.65881 0.02434C6.51485 -0.0127167 8.25725 -0.0127144 10.0375 0.0613989C12.8405 0.209626 15.0374 2.76654 14.9996 5.69402C14.9238 8.54738 12.689 10.8819 9.886 11.0302C9.12844 11.1043 8.40876 11.1043 7.68907 11.1043ZM7.68907 9.36262C7.31029 9.36262 6.89363 9.36262 6.43909 9.36262C6.28758 9.36262 5.98457 9.36262 5.64366 9.36262C5.03761 9.36262 4.3558 9.36262 4.05277 9.36262L3.71186 9.32556V1.69189H4.09064C4.69669 1.69189 5.26488 1.69189 5.83305 1.69189C7.12091 1.69189 8.37089 1.65484 9.62087 1.72895C11.6284 1.84012 13.2193 3.50767 13.2572 5.50873C13.2951 7.43568 11.7799 9.10322 9.886 9.2885C9.39359 9.36262 8.63603 9.36262 7.68907 9.36262ZM6.28757 8.62149C6.36333 8.62149 6.40122 8.62149 6.43909 8.62149C8.02998 8.65855 9.12844 8.62149 9.77237 8.58443C11.2875 8.4362 12.4996 7.10216 12.4617 5.54578C12.4617 3.91529 11.1739 2.58125 9.54511 2.50714C8.33301 2.43303 7.12091 2.47008 5.83305 2.47008C5.37851 2.47008 4.92396 2.47008 4.46942 2.47008V8.62149C4.81033 8.62149 5.26488 8.62149 5.64366 8.62149C5.90881 8.62149 6.13606 8.62149 6.28757 8.62149Z" fill="#1C62CD"/>
<path d="M4.77201 8.99207H0.416016V10.7337H4.77201V8.99207Z" fill="#1C62CD"/>
<path d="M5.11356 11.0672H0V8.58435H5.11356V11.0672ZM0.795433 10.326H4.39386V9.32548H0.795433V10.326Z" fill="#1C62CD"/>
<path d="M8.2947 12.4384H0.416016V14.18H8.2947V12.4384Z" fill="#1C62CD"/>
<path d="M8.67336 14.5507H0.0371094V12.0679H8.67336V14.5507ZM0.794674 13.8095H7.91579V12.809H0.794674V13.8095Z" fill="#1C62CD"/>
<path d="M4.09028 7.91736H2.12061V17.6262H4.09028V7.91736Z" fill="#1C62CD"/>
<path d="M4.46942 17.9968H1.74219V7.54688H4.46942V17.9968ZM2.49975 17.2557H3.71186V8.28801H2.49975V17.2557Z" fill="#1C62CD"/>
</svg>
